# xmcd CD Database Entry
#
# Track frame offsets:
# 150
# 9877
# 23150
# 37785
# 50335
# 63832
# 72732
# 78257
# 90007
# 103185
# 111645
# 126560
# 134915
#
# Disc length: 1930 seconds
#
# Revision: 2
# Processed by: cddbd v1.4PL0 Copyright (c) Steve Scherf et al.
# Submitted via: tcd 2.0b
#
DISCID=ad07880d
DTITLE=Lalo Schifrin - Cool Hand Luke
DYEAR=1900
DGENRE=
TTITLE0=Main Title
TTITLE1=Just A Closer Walk With Thee
TTITLE2=Tar Sequence
TTITLE3=Lucille
TTITLE4=Egg Eating Contest
TTITLE5=Plastic Jesus
TTITLE6=Bean Time
TTITLE7=Ballad Of Cool Hand Luke
TTITLE8=Arletta Blues
TTITLE9=The First Morning
TTITLE10=The Chase
TTITLE11=Road Gang
TTITLE12=End Title
EXTD=
EXTT0=
EXTT1=
EXTT2=
EXTT3=
EXTT4=
EXTT5=
EXTT6=
EXTT7=
EXTT8=
EXTT9=
EXTT10=
EXTT11=
EXTT12=
PLAYORDER=
